999
dxflib 2.5.0.0
  0
SECTION
  2
HEADER
  9
$ACADVER
  1
AC1015
  9
$HANDSEED
  5
FFFF
  9
$INSUNITS
 70
4
  9
$DIMEXE
 40
1.25
  9
$TEXTSTYLE
  7
Standard
  9
$LIMMIN
 10
0.0
 20
0.0
  0
ENDSEC
  0
SECTION
  2
TABLES
  0
TABLE
  2
VPORT
  5
8
100
AcDbSymbolTable
 70
1
  0
VPORT
  5
30
100
AcDbSymbolTableRecord
100
AcDbViewportTableRecord
  2
*Active
 70
0
 10
0.0
 20
0.0
 11
1.0
 21
1.0
 12
286.30555555555549
 22
148.5
 13
0.0
 23
0.0
 14
10.0
 24
10.0
 15
10.0
 25
10.0
 16
0.0
 26
0.0
 36
1.0
 17
0.0
 27
0.0
 37
0.0
 40
297.0
 41
1.92798353909465
 42
50.0
 43
0.0
 44
0.0
 50
0.0
 51
0.0
 71
0
 72
100
 73
1
 74
3
 75
1
 76
1
 77
0
 78
0
281
0
 65
1
110
0.0
120
0.0
130
0.0
111
1.0
121
0.0
131
0.0
112
0.0
122
1.0
132
0.0
 79
0
146
0.0
  0
ENDTAB
  0
TABLE
  2
LTYPE
  5
5
100
AcDbSymbolTable
 70
25
  0
LTYPE
  5
14
100
AcDbSymbolTableRecord
100
AcDbLinetypeTableRecord
  2
BYBLOCK
 70
0
  3

 72
65
 73
0
 40
0.0
  0
LTYPE
  5
15
100
AcDbSymbolTableRecord
100
AcDbLinetypeTableRecord
  2
BYLAYER
 70
0
  3

 72
65
 73
0
 40
0.0
  0
LTYPE
  5
16
100
AcDbSymbolTableRecord
100
AcDbLinetypeTableRecord
  2
CONTINUOUS
 70
0
  3
Solid line
 72
65
 73
0
 40
0.0
  0
LTYPE
  5
31
100
AcDbSymbolTableRecord
100
AcDbLinetypeTableRecord
  2
ACAD_ISO02W100
 70
0
  3
ISO Dashed __ __ __ __ __ __ __ __ __ __ _
 72
65
 73
2
 40
15.0
 49
12.0
 74
0
 49
-3.0
 74
0
  0
LTYPE
  5
32
100
AcDbSymbolTableRecord
100
AcDbLinetypeTableRecord
  2
ACAD_ISO03W100
 70
0
  3
ISO Dashed with Distance __    __    __    _
 72
65
 73
2
 40
30.0
 49
12.0
 74
0
 49
-18.0
 74
0
  0
LTYPE
  5
33
100
AcDbSymbolTableRecord
100
AcDbLinetypeTableRecord
  2
ACAD_ISO04W100
 70
0
  3
ISO Long Dashed Dotted ____ . ____ . __
 72
65
 73
4
 40
30.0
 49
24.0
 74
0
 49
-3.0
 74
0
 49
0.0
 74
0
 49
-3.0
 74
0
  0
LTYPE
  5
34
100
AcDbSymbolTableRecord
100
AcDbLinetypeTableRecord
  2
ACAD_ISO05W100
 70
0
  3
ISO Long Dashed Double Dotted ____ .. __
 72
65
 73
6
 40
33.0
 49
24.0
 74
0
 49
-3.0
 74
0
 49
0.0
 74
0
 49
-3.0
 74
0
 49
0.0
 74
0
 49
-3.0
 74
0
  0
LTYPE
  5
35
100
AcDbSymbolTableRecord
100
AcDbLinetypeTableRecord
  2
BORDER
 70
0
  3
Border __ __ . __ __ . __ __ . __ __ . __ __ .
 72
65
 73
6
 40
44.450000000000003
 49
12.699999999999999
 74
0
 49
-6.3499999999999996
 74
0
 49
12.699999999999999
 74
0
 49
-6.3499999999999996
 74
0
 49
0.0
 74
0
 49
-6.3499999999999996
 74
0
  0
LTYPE
  5
36
100
AcDbSymbolTableRecord
100
AcDbLinetypeTableRecord
  2
BORDER2
 70
0
  3
Border (.5x) __.__.__.__.__.__.__.__.__.__.__.
 72
65
 73
6
 40
22.225000000000001
 49
6.3499999999999996
 74
0
 49
-3.1749999999999998
 74
0
 49
6.3499999999999996
 74
0
 49
-3.1749999999999998
 74
0
 49
0.0
 74
0
 49
-3.1749999999999998
 74
0
  0
LTYPE
  5
37
100
AcDbSymbolTableRecord
100
AcDbLinetypeTableRecord
  2
BORDERX2
 70
0
  3
Border (2x) ____  ____  .  ____  ____  .  ___
 72
65
 73
6
 40
88.900000000000006
 49
25.399999999999999
 74
0
 49
-12.699999999999999
 74
0
 49
25.399999999999999
 74
0
 49
-12.699999999999999
 74
0
 49
0.0
 74
0
 49
-12.699999999999999
 74
0
  0
LTYPE
  5
38
100
AcDbSymbolTableRecord
100
AcDbLinetypeTableRecord
  2
CENTER
 70
0
  3
Center ____ _ ____ _ ____ _ ____ _ ____ _ ____
 72
65
 73
4
 40
50.799999999999997
 49
31.75
 74
0
 49
-6.3499999999999996
 74
0
 49
6.3499999999999996
 74
0
 49
-6.3499999999999996
 74
0
  0
LTYPE
  5
39
100
AcDbSymbolTableRecord
100
AcDbLinetypeTableRecord
  2
CENTER2
 70
0
  3
Center (.5x) ___ _ ___ _ ___ _ ___ _ ___ _ ___
 72
65
 73
4
 40
28.574999999999999
 49
19.050000000000001
 74
0
 49
-3.1749999999999998
 74
0
 49
3.1749999999999998
 74
0
 49
-3.1749999999999998
 74
0
  0
LTYPE
  5
3A
100
AcDbSymbolTableRecord
100
AcDbLinetypeTableRecord
  2
CENTERX2
 70
0
  3
Center (2x) ________  __  ________  __  _____
 72
65
 73
4
 40
101.59999999999999
 49
63.5
 74
0
 49
-12.699999999999999
 74
0
 49
12.699999999999999
 74
0
 49
-12.699999999999999
 74
0
  0
LTYPE
  5
3B
100
AcDbSymbolTableRecord
100
AcDbLinetypeTableRecord
  2
DASHDOT
 70
0
  3
Dash dot __ . __ . __ . __ . __ . __ . __ . __
 72
65
 73
4
 40
25.399999999999999
 49
12.699999999999999
 74
0
 49
-6.3499999999999996
 74
0
 49
0.0
 74
0
 49
-6.3499999999999996
 74
0
  0
LTYPE
  5
3C
100
AcDbSymbolTableRecord
100
AcDbLinetypeTableRecord
  2
DASHDOT2
 70
0
  3
Dash dot (.5x) _._._._._._._._._._._._._._._.
 72
65
 73
4
 40
12.699999999999999
 49
6.3499999999999996
 74
0
 49
-3.1749999999999998
 74
0
 49
0.0
 74
0
 49
-3.1749999999999998
 74
0
  0
LTYPE
  5
3D
100
AcDbSymbolTableRecord
100
AcDbLinetypeTableRecord
  2
DASHDOTX2
 70
0
  3
Dash dot (2x) ____  .  ____  .  ____  .  ___
 72
65
 73
4
 40
50.799999999999997
 49
25.399999999999999
 74
0
 49
-12.699999999999999
 74
0
 49
0.0
 74
0
 49
-12.699999999999999
 74
0
  0
LTYPE
  5
3E
100
AcDbSymbolTableRecord
100
AcDbLinetypeTableRecord
  2
DASHED
 70
0
  3
Dashed __ __ __ __ __ __ __ __ __ __ __ __ __ _
 72
65
 73
2
 40
19.050000000000001
 49
12.699999999999999
 74
0
 49
-6.3499999999999996
 74
0
  0
LTYPE
  5
3F
100
AcDbSymbolTableRecord
100
AcDbLinetypeTableRecord
  2
DASHED2
 70
0
  3
Dashed (.5x) _ _ _ _ _ _ _ _ _ _ _ _ _ _ _ _ _
 72
65
 73
2
 40
9.5250000000000004
 49
6.3499999999999996
 74
0
 49
-3.1749999999999998
 74
0
  0
LTYPE
  5
40
100
AcDbSymbolTableRecord
100
AcDbLinetypeTableRecord
  2
DASHEDX2
 70
0
  3
Dashed (2x) ____  ____  ____  ____  ____  ___
 72
65
 73
2
 40
38.100000000000001
 49
25.399999999999999
 74
0
 49
-12.699999999999999
 74
0
  0
LTYPE
  5
41
100
AcDbSymbolTableRecord
100
AcDbLinetypeTableRecord
  2
DIVIDE
 70
0
  3
Divide ____ . . ____ . . ____ . . ____ . . ____
 72
65
 73
6
 40
31.75
 49
12.699999999999999
 74
0
 49
-6.3499999999999996
 74
0
 49
0.0
 74
0
 49
-6.3499999999999996
 74
0
 49
0.0
 74
0
 49
-6.3499999999999996
 74
0
  0
LTYPE
  5
42
100
AcDbSymbolTableRecord
100
AcDbLinetypeTableRecord
  2
DIVIDE2
 70
0
  3
Divide (.5x) __..__..__..__..__..__..__..__.._
 72
65
 73
6
 40
15.875
 49
6.3499999999999996
 74
0
 49
-3.1749999999999998
 74
0
 49
0.0
 74
0
 49
-3.1749999999999998
 74
0
 49
0.0
 74
0
 49
-3.1749999999999998
 74
0
  0
LTYPE
  5
43
100
AcDbSymbolTableRecord
100
AcDbLinetypeTableRecord
  2
DIVIDEX2
 70
0
  3
Divide (2x) ________  .  .  ________  .  .  _
 72
65
 73
6
 40
63.5
 49
25.399999999999999
 74
0
 49
-12.699999999999999
 74
0
 49
0.0
 74
0
 49
-12.699999999999999
 74
0
 49
0.0
 74
0
 49
-12.699999999999999
 74
0
  0
LTYPE
  5
44
100
AcDbSymbolTableRecord
100
AcDbLinetypeTableRecord
  2
DOT
 70
0
  3
Dot . . . . . . . . . . . . . . . . . . . . . .
 72
65
 73
2
 40
6.3499999999999996
 49
0.0
 74
0
 49
-6.3499999999999996
 74
0
  0
LTYPE
  5
45
100
AcDbSymbolTableRecord
100
AcDbLinetypeTableRecord
  2
DOT2
 70
0
  3
Dot (.5x) .....................................
 72
65
 73
2
 40
3.1749999999999998
 49
0.0
 74
0
 49
-3.1749999999999998
 74
0
  0
LTYPE
  5
46
100
AcDbSymbolTableRecord
100
AcDbLinetypeTableRecord
  2
DOTX2
 70
0
  3
Dot (2x) .  .  .  .  .  .  .  .  .  .  .  .  .
 72
65
 73
2
 40
12.699999999999999
 49
0.0
 74
0
 49
-12.699999999999999
 74
0
  0
ENDTAB
  0
TABLE
  2
LAYER
  5
2
100
AcDbSymbolTable
 70
3
  0
LAYER
  5
10
100
AcDbSymbolTableRecord
100
AcDbLayerTableRecord
  2
0
 70
0
 62
250
  6
CONTINUOUS
390
F
  0
LAYER
  5
47
100
AcDbSymbolTableRecord
100
AcDbLayerTableRecord
  2
mainlayer
 70
0
 62
250
  6
CONTINUOUS
390
F
  0
LAYER
  5
48
100
AcDbSymbolTableRecord
100
AcDbLayerTableRecord
  2
anotherlayer
 70
0
 62
250
  6
CONTINUOUS
390
F
  0
ENDTAB
  0
TABLE
  2
STYLE
  5
3
100
AcDbSymbolTable
 70
1
  0
STYLE
  5
11
100
AcDbSymbolTableRecord
100
AcDbTextStyleTableRecord
  2
Standard
 70
0
 40
0.0
 41
0.75
 50
0.0
 71
0
 42
2.5
  3
txt
  4

  0
ENDTAB
  0
TABLE
  2
VIEW
  5
6
100
AcDbSymbolTable
 70
0
  0
ENDTAB
  0
TABLE
  2
UCS
  5
7
100
AcDbSymbolTable
 70
0
  0
ENDTAB
  0
TABLE
  2
APPID
  5
9
100
AcDbSymbolTable
 70
1
  0
APPID
  5
12
100
AcDbSymbolTableRecord
100
AcDbRegAppTableRecord
  2
ACAD
 70
0
  0
ENDTAB
  0
TABLE
  2
DIMSTYLE
  5
A
100
AcDbSymbolTable
 70
1
100
AcDbDimStyleTable
 71
0
  0
DIMSTYLE
105
27
100
AcDbSymbolTableRecord
100
AcDbDimStyleTableRecord
  2
Standard
 41
1.0
 42
1.0
 43
3.75
 44
1.0
 70
0
 73
0
 74
0
 77
1
 78
8
140
1.0
141
2.5
143
0.03937007874016
147
1.0
171
3
172
1
271
2
272
2
274
3
278
44
283
0
284
8
340
11
  0
ENDTAB
  0
TABLE
  2
BLOCK_RECORD
  5
1
100
AcDbSymbolTable
 70
1
  0
BLOCK_RECORD
  5
1F
100
AcDbSymbolTableRecord
100
AcDbBlockTableRecord
  2
*Model_Space
340
22
  0
BLOCK_RECORD
  5
1B
100
AcDbSymbolTableRecord
100
AcDbBlockTableRecord
  2
*Paper_Space
340
1E
  0
BLOCK_RECORD
  5
23
100
AcDbSymbolTableRecord
100
AcDbBlockTableRecord
  2
*Paper_Space0
340
26
  0
BLOCK_RECORD
  5
49
100
AcDbSymbolTableRecord
100
AcDbBlockTableRecord
  2
myblock1
340
0
  0
BLOCK_RECORD
  5
4A
100
AcDbSymbolTableRecord
100
AcDbBlockTableRecord
  2
myblock2
340
0
  0
ENDTAB
  0
ENDSEC
  0
SECTION
  2
BLOCKS
  0
BLOCK
  5
20
100
AcDbEntity
  8
0
100
AcDbBlockBegin
  2
*Model_Space
 70
0
 10
0.0
 20
0.0
 30
0.0
  3
*Model_Space
  1

  0
ENDBLK
  5
21
100
AcDbEntity
  8
0
100
AcDbBlockEnd
  0
BLOCK
  5
1C
100
AcDbEntity
 67
1
  8
0
100
AcDbBlockBegin
  2
*Paper_Space
 70
0
 10
0.0
 20
0.0
 30
0.0
  3
*Paper_Space
  1

  0
ENDBLK
  5
1D
100
AcDbEntity
 67
1
  8
0
100
AcDbBlockEnd
  0
BLOCK
  5
24
100
AcDbEntity
  8
0
100
AcDbBlockBegin
  2
*Paper_Space0
 70
0
 10
0.0
 20
0.0
 30
0.0
  3
*Paper_Space0
  1

  0
ENDBLK
  5
25
100
AcDbEntity
  8
0
100
AcDbBlockEnd
  0
BLOCK
  5
4B
100
AcDbEntity
  8
0
100
AcDbBlockBegin
  2
myblock1
 70
0
 10
0.0
 20
0.0
 30
0.0
  3
myblock1
  1

  0
ENDBLK
  5
4C
100
AcDbEntity
  8
0
100
AcDbBlockEnd
  0
BLOCK
  5
4D
100
AcDbEntity
  8
0
100
AcDbBlockBegin
  2
myblock2
 70
0
 10
0.0
 20
0.0
 30
0.0
  3
myblock2
  1

  0
ENDBLK
  5
4E
100
AcDbEntity
  8
0
100
AcDbBlockEnd
  0
ENDSEC
  0
SECTION
  2
ENTITIES
  0
POINT
  5
4F
100
AcDbEntity
100
AcDbPoint
  8
mainlayer
 62
256
370
-1
  6
BYLAYER
 10
-86.349999999999966
 20
2161.3910400000009
 30
0.0
  0
POINT
  5
50
100
AcDbEntity
100
AcDbPoint
  8
mainlayer
 62
256
370
-1
  6
BYLAYER
 10
86.34999999999998
 20
2161.3910400000009
 30
0.0
  0
POINT
  5
51
100
AcDbEntity
100
AcDbPoint
  8
mainlayer
 62
256
370
-1
  6
BYLAYER
 10
-86.34999999999998
 20
2011.97568
 30
0.0
  0
POINT
  5
52
100
AcDbEntity
100
AcDbPoint
  8
mainlayer
 62
256
370
-1
  6
BYLAYER
 10
-25.175000000000001
 20
2011.97568
 30
0.0
  0
POINT
  5
53
100
AcDbEntity
100
AcDbPoint
  8
mainlayer
 62
256
370
-1
  6
BYLAYER
 10
-86.34999999999998
 20
1893.27568
 30
0.0
  0
POINT
  5
54
100
AcDbEntity
100
AcDbPoint
  8
mainlayer
 62
256
370
-1
  6
BYLAYER
 10
-16.783333333333339
 20
1893.27568
 30
0.0
  0
POINT
  5
55
100
AcDbEntity
100
AcDbPoint
  8
mainlayer
 62
256
370
-1
  6
BYLAYER
 10
86.349999999999994
 20
1893.27568
 30
0.0
  0
POINT
  5
56
100
AcDbEntity
100
AcDbPoint
  8
mainlayer
 62
256
370
-1
  6
BYLAYER
 10
489.14999999999998
 20
1893.27568
 30
0.0
  0
POINT
  5
57
100
AcDbEntity
100
AcDbPoint
  8
mainlayer
 62
256
370
-1
  6
BYLAYER
 10
489.14999999999998
 20
2161.3910400000009
 30
0.0
  0
POINT
  5
58
100
AcDbEntity
100
AcDbPoint
  8
mainlayer
 62
256
370
-1
  6
BYLAYER
 10
16.783333333333321
 20
1902.1552447563431
 30
0.0
  0
POINT
  5
59
100
AcDbEntity
100
AcDbPoint
  8
mainlayer
 62
256
370
-1
  6
BYLAYER
 10
16.783333333333321
 20
1893.27568
 30
0.0
  0
POINT
  5
5A
100
AcDbEntity
100
AcDbPoint
  8
mainlayer
 62
256
370
-1
  6
BYLAYER
 10
-16.783333333333349
 20
1902.1552447563431
 30
0.0
  0
POINT
  5
5B
100
AcDbEntity
100
AcDbPoint
  8
mainlayer
 62
256
370
-1
  6
BYLAYER
 10
50.350000000000001
 20
1949.6256800000001
 30
0.0
  0
POINT
  5
5C
100
AcDbEntity
100
AcDbPoint
  8
mainlayer
 62
256
370
-1
  6
BYLAYER
 10
86.349999999999994
 20
1949.6256800000001
 30
0.0
  0
POINT
  5
5D
100
AcDbEntity
100
AcDbPoint
  8
mainlayer
 62
256
370
-1
  6
BYLAYER
 10
-50.350000000000001
 20
1949.6256800000001
 30
0.0
  0
POINT
  5
5E
100
AcDbEntity
100
AcDbPoint
  8
mainlayer
 62
256
370
-1
  6
BYLAYER
 10
-86.349999999999994
 20
1949.6256800000001
 30
0.0
  0
POINT
  5
5F
100
AcDbEntity
100
AcDbPoint
  8
mainlayer
 62
256
370
-1
  6
BYLAYER
 10
-25.175000000000001
 20
1997.625680000001
 30
0.0
  0
POINT
  5
60
100
AcDbEntity
100
AcDbPoint
  8
mainlayer
 62
256
370
-1
  6
BYLAYER
 10
-86.349999999999994
 20
1997.6256800000001
 30
0.0
  0
POINT
  5
61
100
AcDbEntity
100
AcDbPoint
  8
mainlayer
 62
256
370
-1
  6
BYLAYER
 10
-25.175000000000001
 20
2005.625680000001
 30
0.0
  0
POINT
  5
62
100
AcDbEntity
100
AcDbPoint
  8
mainlayer
 62
256
370
-1
  6
BYLAYER
 10
-86.34999999999998
 20
2005.6256800000001
 30
0.0
  0
POINT
  5
63
100
AcDbEntity
100
AcDbPoint
  8
mainlayer
 62
256
370
-1
  6
BYLAYER
 10
-23.386179187699419
 20
1994.2150186696961
 30
0.0
  0
POINT
  5
64
100
AcDbEntity
100
AcDbPoint
  8
mainlayer
 62
256
370
-1
  6
BYLAYER
 10
25.175000000000001
 20
2011.97568
 30
0.0
  0
POINT
  5
65
100
AcDbEntity
100
AcDbPoint
  8
mainlayer
 62
256
370
-1
  6
BYLAYER
 10
86.349999999999994
 20
2011.97568
 30
0.0
  0
POINT
  5
66
100
AcDbEntity
100
AcDbPoint
  8
mainlayer
 62
256
370
-1
  6
BYLAYER
 10
-489.14999999999998
 20
1893.27568
 30
0.0
  0
POINT
  5
67
100
AcDbEntity
100
AcDbPoint
  8
mainlayer
 62
256
370
-1
  6
BYLAYER
 10
-489.14999999999998
 20
2161.3910400000009
 30
0.0
  0
POINT
  5
68
100
AcDbEntity
100
AcDbPoint
  8
mainlayer
 62
256
370
-1
  6
BYLAYER
 10
25.175000000000001
 20
1997.625680000001
 30
0.0
  0
POINT
  5
69
100
AcDbEntity
100
AcDbPoint
  8
mainlayer
 62
256
370
-1
  6
BYLAYER
 10
86.349999999999994
 20
1997.6256800000001
 30
0.0
  0
POINT
  5
6A
100
AcDbEntity
100
AcDbPoint
  8
mainlayer
 62
256
370
-1
  6
BYLAYER
 10
25.175000000000001
 20
2005.625680000001
 30
0.0
  0
POINT
  5
6B
100
AcDbEntity
100
AcDbPoint
  8
mainlayer
 62
256
370
-1
  6
BYLAYER
 10
86.34999999999998
 20
2005.6256800000001
 30
0.0
  0
POINT
  5
6C
100
AcDbEntity
100
AcDbPoint
  8
mainlayer
 62
256
370
-1
  6
BYLAYER
 10
23.386179187699419
 20
1994.2150186696961
 30
0.0
  0
POINT
  5
6D
100
AcDbEntity
100
AcDbPoint
  8
mainlayer
 62
256
370
-1
  6
BYLAYER
 10
-86.34999999999998
 20
2023.9756799999991
 30
0.0
  0
POINT
  5
6E
100
AcDbEntity
100
AcDbPoint
  8
mainlayer
 62
256
370
-1
  6
BYLAYER
 10
86.349999999999994
 20
2023.97568
 30
0.0
  0
POINT
  5
6F
100
AcDbEntity
100
AcDbPoint
  8
mainlayer
 62
256
370
-1
  6
BYLAYER
 10
-86.350000000000009
 20
2035.9756799999991
 30
0.0
  0
POINT
  5
70
100
AcDbEntity
100
AcDbPoint
  8
mainlayer
 62
256
370
-1
  6
BYLAYER
 10
86.349999999999966
 20
2035.97568
 30
0.0
  0
POINT
  5
71
100
AcDbEntity
100
AcDbPoint
  8
mainlayer
 62
256
370
-1
  6
BYLAYER
 10
-86.35000000000008
 20
2061.058759999999
 30
0.0
  0
POINT
  5
72
100
AcDbEntity
100
AcDbPoint
  8
mainlayer
 62
256
370
-1
  6
BYLAYER
 10
86.349999999999895
 20
2061.0587599999999
 30
0.0
  0
POINT
  5
73
100
AcDbEntity
100
AcDbPoint
  8
mainlayer
 62
256
370
-1
  6
BYLAYER
 10
-86.350000000000151
 20
2086.1418399999989
 30
0.0
  0
POINT
  5
74
100
AcDbEntity
100
AcDbPoint
  8
mainlayer
 62
256
370
-1
  6
BYLAYER
 10
86.349999999999824
 20
2086.1418399999998
 30
0.0
  0
POINT
  5
75
100
AcDbEntity
100
AcDbPoint
  8
mainlayer
 62
256
370
-1
  6
BYLAYER
 10
-86.350000000000222
 20
2111.2249199999992
 30
0.0
  0
POINT
  5
76
100
AcDbEntity
100
AcDbPoint
  8
mainlayer
 62
256
370
-1
  6
BYLAYER
 10
86.349999999999739
 20
2111.2249200000001
 30
0.0
  0
POINT
  5
77
100
AcDbEntity
100
AcDbPoint
  8
mainlayer
 62
256
370
-1
  6
BYLAYER
 10
-86.350000000000293
 20
2136.3079999999991
 30
0.0
  0
POINT
  5
78
100
AcDbEntity
100
AcDbPoint
  8
mainlayer
 62
256
370
-1
  6
BYLAYER
 10
86.349999999999667
 20
2136.308
 30
0.0
  0
POINT
  5
79
100
AcDbEntity
100
AcDbPoint
  8
mainlayer
 62
256
370
-1
  6
BYLAYER
 10
489.14999999999998
 20
1949.6256800000001
 30
0.0
  0
POINT
  5
7A
100
AcDbEntity
100
AcDbPoint
  8
mainlayer
 62
256
370
-1
  6
BYLAYER
 10
-489.14999999999998
 20
1949.6256800000001
 30
0.0
  0
POINT
  5
7B
100
AcDbEntity
100
AcDbPoint
  8
mainlayer
 62
256
370
-1
  6
BYLAYER
 10
489.14999999999998
 20
1997.6256800000001
 30
0.0
  0
POINT
  5
7C
100
AcDbEntity
100
AcDbPoint
  8
mainlayer
 62
256
370
-1
  6
BYLAYER
 10
-489.14999999999998
 20
1997.6256800000001
 30
0.0
  0
POINT
  5
7D
100
AcDbEntity
100
AcDbPoint
  8
mainlayer
 62
256
370
-1
  6
BYLAYER
 10
-15.93521222525519
 20
1997.387500645114
 30
0.0
  0
POINT
  5
7E
100
AcDbEntity
100
AcDbPoint
  8
mainlayer
 62
256
370
-1
  6
BYLAYER
 10
-8.0720143247670588
 20
1999.3244232913621
 30
0.0
  0
POINT
  5
7F
100
AcDbEntity
100
AcDbPoint
  8
mainlayer
 62
256
370
-1
  6
BYLAYER
 10
0.0
 20
1999.97568
 30
0.0
  0
POINT
  5
80
100
AcDbEntity
100
AcDbPoint
  8
mainlayer
 62
256
370
-1
  6
BYLAYER
 10
8.072014324767057
 20
1999.3244232913621
 30
0.0
  0
POINT
  5
81
100
AcDbEntity
100
AcDbPoint
  8
mainlayer
 62
256
370
-1
  6
BYLAYER
 10
15.93521222525519
 20
1997.387500645114
 30
0.0
  0
POINT
  5
82
100
AcDbEntity
100
AcDbPoint
  8
mainlayer
 62
256
370
-1
  6
BYLAYER
 10
-19.209275307838539
 20
2000.3088563719259
 30
0.0
  0
POINT
  5
83
100
AcDbEntity
100
AcDbPoint
  8
mainlayer
 62
256
370
-1
  6
BYLAYER
 10
-12.96376404391285
 20
2002.2538231062681
 30
0.0
  0
POINT
  5
84
100
AcDbEntity
100
AcDbPoint
  8
mainlayer
 62
256
370
-1
  6
BYLAYER
 10
-6.5294332102281833
 20
2003.4322514104999
 30
0.0
  0
POINT
  5
85
100
AcDbEntity
100
AcDbPoint
  8
mainlayer
 62
256
370
-1
  6
BYLAYER
 10
-0.0000000000000118
 20
2003.826977263074
 30
0.0
  0
POINT
  5
86
100
AcDbEntity
100
AcDbPoint
  8
mainlayer
 62
256
370
-1
  6
BYLAYER
 10
6.5294332102281611
 20
2003.4322514104999
 30
0.0
  0
POINT
  5
87
100
AcDbEntity
100
AcDbPoint
  8
mainlayer
 62
256
370
-1
  6
BYLAYER
 10
12.96376404391283
 20
2002.2538231062681
 30
0.0
  0
POINT
  5
88
100
AcDbEntity
100
AcDbPoint
  8
mainlayer
 62
256
370
-1
  6
BYLAYER
 10
19.209275307838521
 20
2000.3088563719259
 30
0.0
  0
POINT
  5
89
100
AcDbEntity
100
AcDbPoint
  8
mainlayer
 62
256
370
-1
  6
BYLAYER
 10
-18.926133195822619
 20
2006.61975768824
 30
0.0
  0
POINT
  5
8A
100
AcDbEntity
100
AcDbPoint
  8
mainlayer
 62
256
370
-1
  6
BYLAYER
 10
-12.63882116431561
 20
2007.3312590621481
 30
0.0
  0
POINT
  5
8B
100
AcDbEntity
100
AcDbPoint
  8
mainlayer
 62
256
370
-1
  6
BYLAYER
 10
-6.325835512750368
 20
2007.758738827443
 30
0.0
  0
POINT
  5
8C
100
AcDbEntity
100
AcDbPoint
  8
mainlayer
 62
256
370
-1
  6
BYLAYER
 10
0.0000000000000086
 20
2007.9013286315369
 30
0.0
  0
POINT
  5
8D
100
AcDbEntity
100
AcDbPoint
  8
mainlayer
 62
256
370
-1
  6
BYLAYER
 10
6.3258355127503849
 20
2007.758738827443
 30
0.0
  0
POINT
  5
8E
100
AcDbEntity
100
AcDbPoint
  8
mainlayer
 62
256
370
-1
  6
BYLAYER
 10
12.63882116431563
 20
2007.3312590621481
 30
0.0
  0
POINT
  5
8F
100
AcDbEntity
100
AcDbPoint
  8
mainlayer
 62
256
370
-1
  6
BYLAYER
 10
18.926133195822629
 20
2006.61975768824
 30
0.0
  0
POINT
  5
90
100
AcDbEntity
100
AcDbPoint
  8
mainlayer
 62
256
370
-1
  6
BYLAYER
 10
-48.899105308788641
 20
1961.6256800000001
 30
0.0
  0
POINT
  5
91
100
AcDbEntity
100
AcDbPoint
  8
mainlayer
 62
256
370
-1
  6
BYLAYER
 10
-86.349999999999923
 20
1961.6256800000001
 30
0.0
  0
POINT
  5
92
100
AcDbEntity
100
AcDbPoint
  8
mainlayer
 62
256
370
-1
  6
BYLAYER
 10
-48.76394672296346
 20
1973.6256800000001
 30
0.0
  0
POINT
  5
93
100
AcDbEntity
100
AcDbPoint
  8
mainlayer
 62
256
370
-1
  6
BYLAYER
 10
-86.349999999999852
 20
1973.6256800000001
 30
0.0
  0
POINT
  5
94
100
AcDbEntity
100
AcDbPoint
  8
mainlayer
 62
256
370
-1
  6
BYLAYER
 10
-40.717594477080929
 20
1985.6256800000001
 30
0.0
  0
POINT
  5
95
100
AcDbEntity
100
AcDbPoint
  8
mainlayer
 62
256
370
-1
  6
BYLAYER
 10
-86.349999999999781
 20
1985.6256800000001
 30
0.0
  0
POINT
  5
96
100
AcDbEntity
100
AcDbPoint
  8
mainlayer
 62
256
370
-1
  6
BYLAYER
 10
-37.72089939137124
 20
1982.9761859797611
 30
0.0
  0
POINT
  5
97
100
AcDbEntity
100
AcDbPoint
  8
mainlayer
 62
256
370
-1
  6
BYLAYER
 10
-45.175063799470323
 20
1971.859350653174
 30
0.0
  0
POINT
  5
98
100
AcDbEntity
100
AcDbPoint
  8
mainlayer
 62
256
370
-1
  6
BYLAYER
 10
48.89910530878862
 20
1961.6256800000001
 30
0.0
  0
POINT
  5
99
100
AcDbEntity
100
AcDbPoint
  8
mainlayer
 62
256
370
-1
  6
BYLAYER
 10
86.349999999999895
 20
1961.6256800000001
 30
0.0
  0
POINT
  5
9A
100
AcDbEntity
100
AcDbPoint
  8
mainlayer
 62
256
370
-1
  6
BYLAYER
 10
48.763946722963453
 20
1973.6256800000001
 30
0.0
  0
POINT
  5
9B
100
AcDbEntity
100
AcDbPoint
  8
mainlayer
 62
256
370
-1
  6
BYLAYER
 10
86.349999999999824
 20
1973.6256800000001
 30
0.0
  0
POINT
  5
9C
100
AcDbEntity
100
AcDbPoint
  8
mainlayer
 62
256
370
-1
  6
BYLAYER
 10
40.717594477080922
 20
1985.6256800000001
 30
0.0
  0
POINT
  5
9D
100
AcDbEntity
100
AcDbPoint
  8
mainlayer
 62
256
370
-1
  6
BYLAYER
 10
86.349999999999739
 20
1985.6256800000001
 30
0.0
  0
POINT
  5
9E
100
AcDbEntity
100
AcDbPoint
  8
mainlayer
 62
256
370
-1
  6
BYLAYER
 10
-26.466587951183879
 20
1902.1552447563431
 30
0.0
  0
POINT
  5
9F
100
AcDbEntity
100
AcDbPoint
  8
mainlayer
 62
256
370
-1
  6
BYLAYER
 10
-86.34999999999998
 20
1902.1552447563431
 30
0.0
  0
POINT
  5
A0
100
AcDbEntity
100
AcDbPoint
  8
mainlayer
 62
256
370
-1
  6
BYLAYER
 10
-24.51872499249507
 20
1905.6489290429049
 30
0.0
  0
POINT
  5
A1
100
AcDbEntity
100
AcDbPoint
  8
mainlayer
 62
256
370
-1
  6
BYLAYER
 10
26.466587951183861
 20
1902.1552447563431
 30
0.0
  0
POINT
  5
A2
100
AcDbEntity
100
AcDbPoint
  8
mainlayer
 62
256
370
-1
  6
BYLAYER
 10
86.349999999999966
 20
1902.1552447563431
 30
0.0
  0
POINT
  5
A3
100
AcDbEntity
100
AcDbPoint
  8
mainlayer
 62
256
370
-1
  6
BYLAYER
 10
24.518724992495049
 20
1905.6489290429049
 30
0.0
  0
POINT
  5
A4
100
AcDbEntity
100
AcDbPoint
  8
mainlayer
 62
256
370
-1
  6
BYLAYER
 10
-49.98596029035307
 20
1955.6693770350321
 30
0.0
  0
POINT
  5
A5
100
AcDbEntity
100
AcDbPoint
  8
mainlayer
 62
256
370
-1
  6
BYLAYER
 10
-47.314578378251767
 20
1966.8434955666819
 30
0.0
  0
POINT
  5
A6
100
AcDbEntity
100
AcDbPoint
  8
mainlayer
 62
256
370
-1
  6
BYLAYER
 10
-41.81902898506798
 20
1977.6665664828849
 30
0.0
  0
POINT
  5
A7
100
AcDbEntity
100
AcDbPoint
  8
mainlayer
 62
256
370
-1
  6
BYLAYER
 10
-33.409796485157408
 20
1987.2940752249151
 30
0.0
  0
POINT
  5
A8
100
AcDbEntity
100
AcDbPoint
  8
mainlayer
 62
256
370
-1
  6
BYLAYER
 10
-28.608050924510721
 20
1991.0587817702101
 30
0.0
  0
POINT
  5
A9
100
AcDbEntity
100
AcDbPoint
  8
mainlayer
 62
256
370
-1
  6
BYLAYER
 10
37.72089939137124
 20
1982.9761859797611
 30
0.0
  0
POINT
  5
AA
100
AcDbEntity
100
AcDbPoint
  8
mainlayer
 62
256
370
-1
  6
BYLAYER
 10
45.175063799470323
 20
1971.859350653174
 30
0.0
  0
POINT
  5
AB
100
AcDbEntity
100
AcDbPoint
  8
mainlayer
 62
256
370
-1
  6
BYLAYER
 10
49.98596029035307
 20
1955.6693770350321
 30
0.0
  0
POINT
  5
AC
100
AcDbEntity
100
AcDbPoint
  8
mainlayer
 62
256
370
-1
  6
BYLAYER
 10
47.314578378251767
 20
1966.8434955666819
 30
0.0
  0
POINT
  5
AD
100
AcDbEntity
100
AcDbPoint
  8
mainlayer
 62
256
370
-1
  6
BYLAYER
 10
41.81902898506798
 20
1977.6665664828849
 30
0.0
  0
POINT
  5
AE
100
AcDbEntity
100
AcDbPoint
  8
mainlayer
 62
256
370
-1
  6
BYLAYER
 10
33.409796485157408
 20
1987.2940752249151
 30
0.0
  0
POINT
  5
AF
100
AcDbEntity
100
AcDbPoint
  8
mainlayer
 62
256
370
-1
  6
BYLAYER
 10
28.608050924510721
 20
1991.0587817702101
 30
0.0
  0
POINT
  5
B0
100
AcDbEntity
100
AcDbPoint
  8
mainlayer
 62
256
370
-1
  6
BYLAYER
 10
-8.0720143247670588
 20
1899.9269367086381
 30
0.0
  0
POINT
  5
B1
100
AcDbEntity
100
AcDbPoint
  8
mainlayer
 62
256
370
-1
  6
BYLAYER
 10
0.0
 20
1899.27568
 30
0.0
  0
POINT
  5
B2
100
AcDbEntity
100
AcDbPoint
  8
mainlayer
 62
256
370
-1
  6
BYLAYER
 10
8.072014324767057
 20
1899.9269367086381
 30
0.0
  0
POINT
  5
B3
100
AcDbEntity
100
AcDbPoint
  8
mainlayer
 62
256
370
-1
  6
BYLAYER
 10
-49.98596029035307
 20
1943.5819829649679
 30
0.0
  0
POINT
  5
B4
100
AcDbEntity
100
AcDbPoint
  8
mainlayer
 62
256
370
-1
  6
BYLAYER
 10
-48.899105308788641
 20
1937.6256800000001
 30
0.0
  0
POINT
  5
B5
100
AcDbEntity
100
AcDbPoint
  8
mainlayer
 62
256
370
-1
  6
BYLAYER
 10
-47.314578378251767
 20
1932.4078644333181
 30
0.0
  0
POINT
  5
B6
100
AcDbEntity
100
AcDbPoint
  8
mainlayer
 62
256
370
-1
  6
BYLAYER
 10
-45.175063799470323
 20
1927.3920093468259
 30
0.0
  0
POINT
  5
B7
100
AcDbEntity
100
AcDbPoint
  8
mainlayer
 62
256
370
-1
  6
BYLAYER
 10
-41.81902898506798
 20
1921.584793517115
 30
0.0
  0
POINT
  5
B8
100
AcDbEntity
100
AcDbPoint
  8
mainlayer
 62
256
370
-1
  6
BYLAYER
 10
-37.72089939137139
 20
1916.2751740202391
 30
0.0
  0
POINT
  5
B9
100
AcDbEntity
100
AcDbPoint
  8
mainlayer
 62
256
370
-1
  6
BYLAYER
 10
-33.409796485157408
 20
1911.9572847750851
 30
0.0
  0
POINT
  5
BA
100
AcDbEntity
100
AcDbPoint
  8
mainlayer
 62
256
370
-1
  6
BYLAYER
 10
-28.608050924510721
 20
1908.1925782297899
 30
0.0
  0
POINT
  5
BB
100
AcDbEntity
100
AcDbPoint
  8
mainlayer
 62
256
370
-1
  6
BYLAYER
 10
49.98596029035307
 20
1943.5819829649679
 30
0.0
  0
POINT
  5
BC
100
AcDbEntity
100
AcDbPoint
  8
mainlayer
 62
256
370
-1
  6
BYLAYER
 10
48.899105308788641
 20
1937.6256800000001
 30
0.0
  0
POINT
  5
BD
100
AcDbEntity
100
AcDbPoint
  8
mainlayer
 62
256
370
-1
  6
BYLAYER
 10
47.314578378251767
 20
1932.4078644333181
 30
0.0
  0
POINT
  5
BE
100
AcDbEntity
100
AcDbPoint
  8
mainlayer
 62
256
370
-1
  6
BYLAYER
 10
45.175063799470323
 20
1927.3920093468259
 30
0.0
  0
POINT
  5
BF
100
AcDbEntity
100
AcDbPoint
  8
mainlayer
 62
256
370
-1
  6
BYLAYER
 10
41.81902898506798
 20
1921.584793517115
 30
0.0
  0
POINT
  5
C0
100
AcDbEntity
100
AcDbPoint
  8
mainlayer
 62
256
370
-1
  6
BYLAYER
 10
37.72089939137139
 20
1916.2751740202391
 30
0.0
  0
POINT
  5
C1
100
AcDbEntity
100
AcDbPoint
  8
mainlayer
 62
256
370
-1
  6
BYLAYER
 10
33.409796485157408
 20
1911.9572847750851
 30
0.0
  0
POINT
  5
C2
100
AcDbEntity
100
AcDbPoint
  8
mainlayer
 62
256
370
-1
  6
BYLAYER
 10
28.608050924510721
 20
1908.1925782297899
 30
0.0
  0
LINE
  5
C3
100
AcDbEntity
100
AcDbLine
  8
mainlayer
 62
256
370
-1
  6
BYLAYER
 10
-86.349999999999966
 20
2161.3910400000009
 30
0.0
 11
86.34999999999998
 21
2161.3910400000009
 31
0.0
  0
LINE
  5
C4
100
AcDbEntity
100
AcDbLine
  8
mainlayer
 62
256
370
-1
  6
BYLAYER
 10
-86.34999999999998
 20
2011.97568
 30
0.0
 11
-25.175000000000001
 21
2011.97568
 31
0.0
  0
LINE
  5
C5
100
AcDbEntity
100
AcDbLine
  8
mainlayer
 62
256
370
-1
  6
BYLAYER
 10
-86.34999999999998
 20
1893.27568
 30
0.0
 11
-16.783333333333339
 21
1893.27568
 31
0.0
  0
LINE
  5
C6
100
AcDbEntity
100
AcDbLine
  8
mainlayer
 62
256
370
-1
  6
BYLAYER
 10
86.349999999999994
 20
1893.27568
 30
0.0
 11
489.14999999999998
 21
1893.27568
 31
0.0
  0
LINE
  5
C7
100
AcDbEntity
100
AcDbLine
  8
mainlayer
 62
256
370
-1
  6
BYLAYER
 10
86.34999999999998
 20
2161.3910400000009
 30
0.0
 11
489.14999999999998
 21
2161.3910400000009
 31
0.0
  0
LINE
  5
C8
100
AcDbEntity
100
AcDbLine
  8
mainlayer
 62
256
370
-1
  6
BYLAYER
 10
16.783333333333321
 20
1902.1552447563431
 30
0.0
 11
16.783333333333321
 21
1893.27568
 31
0.0
  0
LINE
  5
C9
100
AcDbEntity
100
AcDbLine
  8
mainlayer
 62
256
370
-1
  6
BYLAYER
 10
-16.783333333333349
 20
1902.1552447563431
 30
0.0
 11
-16.783333333333339
 21
1893.27568
 31
0.0
  0
LINE
  5
CA
100
AcDbEntity
100
AcDbLine
  8
mainlayer
 62
256
370
-1
  6
BYLAYER
 10
50.350000000000001
 20
1949.6256800000001
 30
0.0
 11
86.349999999999994
 21
1949.6256800000001
 31
0.0
  0
LINE
  5
CB
100
AcDbEntity
100
AcDbLine
  8
mainlayer
 62
256
370
-1
  6
BYLAYER
 10
-50.350000000000001
 20
1949.6256800000001
 30
0.0
 11
-86.349999999999994
 21
1949.6256800000001
 31
0.0
  0
LINE
  5
CC
100
AcDbEntity
100
AcDbLine
  8
mainlayer
 62
256
370
-1
  6
BYLAYER
 10
-25.175000000000001
 20
1997.625680000001
 30
0.0
 11
-86.349999999999994
 21
1997.6256800000001
 31
0.0
  0
LINE
  5
CD
100
AcDbEntity
100
AcDbLine
  8
mainlayer
 62
256
370
-1
  6
BYLAYER
 10
-25.175000000000001
 20
2005.625680000001
 30
0.0
 11
-86.34999999999998
 21
2005.6256800000001
 31
0.0
  0
LINE
  5
CE
100
AcDbEntity
100
AcDbLine
  8
mainlayer
 62
256
370
-1
  6
BYLAYER
 10
-23.386179187699419
 20
1994.2150186696961
 30
0.0
 11
-25.175000000000001
 21
1997.625680000001
 31
0.0
  0
LINE
  5
CF
100
AcDbEntity
100
AcDbLine
  8
mainlayer
 62
256
370
-1
  6
BYLAYER
 10
-25.175000000000001
 20
1997.625680000001
 30
0.0
 11
-25.175000000000001
 21
2005.625680000001
 31
0.0
  0
LINE
  5
D0
100
AcDbEntity
100
AcDbLine
  8
mainlayer
 62
256
370
-1
  6
BYLAYER
 10
-25.175000000000001
 20
2005.625680000001
 30
0.0
 11
-25.175000000000001
 21
2011.97568
 31
0.0
  0
LINE
  5
D1
100
AcDbEntity
100
AcDbLine
  8
mainlayer
 62
256
370
-1
  6
BYLAYER
 10
25.175000000000001
 20
2011.97568
 30
0.0
 11
86.349999999999994
 21
2011.97568
 31
0.0
  0
LINE
  5
D2
100
AcDbEntity
100
AcDbLine
  8
mainlayer
 62
256
370
-1
  6
BYLAYER
 10
-25.175000000000001
 20
2011.97568
 30
0.0
 11
25.175000000000001
 21
2011.97568
 31
0.0
  0
LINE
  5
D3
100
AcDbEntity
100
AcDbLine
  8
mainlayer
 62
256
370
-1
  6
BYLAYER
 10
-86.34999999999998
 20
1893.27568
 30
0.0
 11
-489.14999999999998
 21
1893.27568
 31
0.0
  0
LINE
  5
D4
100
AcDbEntity
100
AcDbLine
  8
mainlayer
 62
256
370
-1
  6
BYLAYER
 10
-86.349999999999966
 20
2161.3910400000009
 30
0.0
 11
-489.14999999999998
 21
2161.3910400000009
 31
0.0
  0
LINE
  5
D5
100
AcDbEntity
100
AcDbLine
  8
mainlayer
 62
256
370
-1
  6
BYLAYER
 10
25.175000000000001
 20
1997.625680000001
 30
0.0
 11
86.349999999999994
 21
1997.6256800000001
 31
0.0
  0
LINE
  5
D6
100
AcDbEntity
100
AcDbLine
  8
mainlayer
 62
256
370
-1
  6
BYLAYER
 10
25.175000000000001
 20
2005.625680000001
 30
0.0
 11
86.34999999999998
 21
2005.6256800000001
 31
0.0
  0
LINE
  5
D7
100
AcDbEntity
100
AcDbLine
  8
mainlayer
 62
256
370
-1
  6
BYLAYER
 10
23.386179187699419
 20
1994.2150186696961
 30
0.0
 11
25.175000000000001
 21
1997.625680000001
 31
0.0
  0
LINE
  5
D8
100
AcDbEntity
100
AcDbLine
  8
mainlayer
 62
256
370
-1
  6
BYLAYER
 10
25.175000000000001
 20
1997.625680000001
 30
0.0
 11
25.175000000000001
 21
2005.625680000001
 31
0.0
  0
LINE
  5
D9
100
AcDbEntity
100
AcDbLine
  8
mainlayer
 62
256
370
-1
  6
BYLAYER
 10
25.175000000000001
 20
2005.625680000001
 30
0.0
 11
25.175000000000001
 21
2011.97568
 31
0.0
  0
LINE
  5
DA
100
AcDbEntity
100
AcDbLine
  8
mainlayer
 62
256
370
-1
  6
BYLAYER
 10
-86.34999999999998
 20
2023.9756799999991
 30
0.0
 11
86.349999999999994
 21
2023.97568
 31
0.0
  0
LINE
  5
DB
100
AcDbEntity
100
AcDbLine
  8
mainlayer
 62
256
370
-1
  6
BYLAYER
 10
-86.350000000000009
 20
2035.9756799999991
 30
0.0
 11
86.349999999999966
 21
2035.97568
 31
0.0
  0
LINE
  5
DC
100
AcDbEntity
100
AcDbLine
  8
mainlayer
 62
256
370
-1
  6
BYLAYER
 10
-86.35000000000008
 20
2061.058759999999
 30
0.0
 11
86.349999999999895
 21
2061.0587599999999
 31
0.0
  0
LINE
  5
DD
100
AcDbEntity
100
AcDbLine
  8
mainlayer
 62
256
370
-1
  6
BYLAYER
 10
-86.350000000000151
 20
2086.1418399999989
 30
0.0
 11
86.349999999999824
 21
2086.1418399999998
 31
0.0
  0
LINE
  5
DE
100
AcDbEntity
100
AcDbLine
  8
mainlayer
 62
256
370
-1
  6
BYLAYER
 10
-86.350000000000222
 20
2111.2249199999992
 30
0.0
 11
86.349999999999739
 21
2111.2249200000001
 31
0.0
  0
LINE
  5
DF
100
AcDbEntity
100
AcDbLine
  8
mainlayer
 62
256
370
-1
  6
BYLAYER
 10
-86.350000000000293
 20
2136.3079999999991
 30
0.0
 11
86.349999999999667
 21
2136.308
 31
0.0
  0
LINE
  5
E0
100
AcDbEntity
100
AcDbLine
  8
mainlayer
 62
256
370
-1
  6
BYLAYER
 10
86.349999999999994
 20
1949.6256800000001
 30
0.0
 11
489.14999999999998
 21
1949.6256800000001
 31
0.0
  0
LINE
  5
E1
100
AcDbEntity
100
AcDbLine
  8
mainlayer
 62
256
370
-1
  6
BYLAYER
 10
-86.349999999999994
 20
1949.6256800000001
 30
0.0
 11
-489.14999999999998
 21
1949.6256800000001
 31
0.0
  0
LINE
  5
E2
100
AcDbEntity
100
AcDbLine
  8
mainlayer
 62
256
370
-1
  6
BYLAYER
 10
86.349999999999994
 20
1997.6256800000001
 30
0.0
 11
489.14999999999998
 21
1997.6256800000001
 31
0.0
  0
LINE
  5
E3
100
AcDbEntity
100
AcDbLine
  8
mainlayer
 62
256
370
-1
  6
BYLAYER
 10
-86.349999999999994
 20
1997.6256800000001
 30
0.0
 11
-489.14999999999998
 21
1997.6256800000001
 31
0.0
  0
LINE
  5
E4
100
AcDbEntity
100
AcDbLine
  8
mainlayer
 62
256
370
-1
  6
BYLAYER
 10
-489.14999999999998
 20
1893.27568
 30
0.0
 11
-489.14999999999998
 21
1949.6256800000001
 31
0.0
  0
LINE
  5
E5
100
AcDbEntity
100
AcDbLine
  8
mainlayer
 62
256
370
-1
  6
BYLAYER
 10
-489.14999999999998
 20
1949.6256800000001
 30
0.0
 11
-489.14999999999998
 21
1997.6256800000001
 31
0.0
  0
LINE
  5
E6
100
AcDbEntity
100
AcDbLine
  8
mainlayer
 62
256
370
-1
  6
BYLAYER
 10
-489.14999999999998
 20
1997.6256800000001
 30
0.0
 11
-489.14999999999998
 21
2161.3910400000009
 31
0.0
  0
LINE
  5
E7
100
AcDbEntity
100
AcDbLine
  8
mainlayer
 62
256
370
-1
  6
BYLAYER
 10
-86.349999999999994
 20
1997.6256800000001
 30
0.0
 11
-86.34999999999998
 21
2005.6256800000001
 31
0.0
  0
LINE
  5
E8
100
AcDbEntity
100
AcDbLine
  8
mainlayer
 62
256
370
-1
  6
BYLAYER
 10
-86.34999999999998
 20
2005.6256800000001
 30
0.0
 11
-86.34999999999998
 21
2011.97568
 31
0.0
  0
LINE
  5
E9
100
AcDbEntity
100
AcDbLine
  8
mainlayer
 62
256
370
-1
  6
BYLAYER
 10
-86.34999999999998
 20
2011.97568
 30
0.0
 11
-86.34999999999998
 21
2023.9756799999991
 31
0.0
  0
LINE
  5
EA
100
AcDbEntity
100
AcDbLine
  8
mainlayer
 62
256
370
-1
  6
BYLAYER
 10
-86.34999999999998
 20
2023.9756799999991
 30
0.0
 11
-86.350000000000009
 21
2035.9756799999991
 31
0.0
  0
LINE
  5
EB
100
AcDbEntity
100
AcDbLine
  8
mainlayer
 62
256
370
-1
  6
BYLAYER
 10
-86.350000000000009
 20
2035.9756799999991
 30
0.0
 11
-86.35000000000008
 21
2061.058759999999
 31
0.0
  0
LINE
  5
EC
100
AcDbEntity
100
AcDbLine
  8
mainlayer
 62
256
370
-1
  6
BYLAYER
 10
-86.35000000000008
 20
2061.058759999999
 30
0.0
 11
-86.350000000000151
 21
2086.1418399999989
 31
0.0
  0
LINE
  5
ED
100
AcDbEntity
100
AcDbLine
  8
mainlayer
 62
256
370
-1
  6
BYLAYER
 10
-86.350000000000151
 20
2086.1418399999989
 30
0.0
 11
-86.350000000000222
 21
2111.2249199999992
 31
0.0
  0
LINE
  5
EE
100
AcDbEntity
100
AcDbLine
  8
mainlayer
 62
256
370
-1
  6
BYLAYER
 10
-86.350000000000222
 20
2111.2249199999992
 30
0.0
 11
-86.350000000000293
 21
2136.3079999999991
 31
0.0
  0
LINE
  5
EF
100
AcDbEntity
100
AcDbLine
  8
mainlayer
 62
256
370
-1
  6
BYLAYER
 10
-86.350000000000293
 20
2136.3079999999991
 30
0.0
 11
-86.349999999999966
 21
2161.3910400000009
 31
0.0
  0
LINE
  5
F0
100
AcDbEntity
100
AcDbLine
  8
mainlayer
 62
256
370
-1
  6
BYLAYER
 10
86.349999999999994
 20
1997.6256800000001
 30
0.0
 11
86.34999999999998
 21
2005.6256800000001
 31
0.0
  0
LINE
  5
F1
100
AcDbEntity
100
AcDbLine
  8
mainlayer
 62
256
370
-1
  6
BYLAYER
 10
86.34999999999998
 20
2005.6256800000001
 30
0.0
 11
86.349999999999994
 21
2011.97568
 31
0.0
  0
LINE
  5
F2
100
AcDbEntity
100
AcDbLine
  8
mainlayer
 62
256
370
-1
  6
BYLAYER
 10
86.349999999999994
 20
2011.97568
 30
0.0
 11
86.349999999999994
 21
2023.97568
 31
0.0
  0
LINE
  5
F3
100
AcDbEntity
100
AcDbLine
  8
mainlayer
 62
256
370
-1
  6
BYLAYER
 10
86.349999999999994
 20
2023.97568
 30
0.0
 11
86.349999999999966
 21
2035.97568
 31
0.0
  0
LINE
  5
F4
100
AcDbEntity
100
AcDbLine
  8
mainlayer
 62
256
370
-1
  6
BYLAYER
 10
86.349999999999966
 20
2035.97568
 30
0.0
 11
86.349999999999895
 21
2061.0587599999999
 31
0.0
  0
LINE
  5
F5
100
AcDbEntity
100
AcDbLine
  8
mainlayer
 62
256
370
-1
  6
BYLAYER
 10
86.349999999999895
 20
2061.0587599999999
 30
0.0
 11
86.349999999999824
 21
2086.1418399999998
 31
0.0
  0
LINE
  5
F6
100
AcDbEntity
100
AcDbLine
  8
mainlayer
 62
256
370
-1
  6
BYLAYER
 10
86.349999999999824
 20
2086.1418399999998
 30
0.0
 11
86.349999999999739
 21
2111.2249200000001
 31
0.0
  0
LINE
  5
F7
100
AcDbEntity
100
AcDbLine
  8
mainlayer
 62
256
370
-1
  6
BYLAYER
 10
86.349999999999739
 20
2111.2249200000001
 30
0.0
 11
86.349999999999667
 21
2136.308
 31
0.0
  0
LINE
  5
F8
100
AcDbEntity
100
AcDbLine
  8
mainlayer
 62
256
370
-1
  6
BYLAYER
 10
86.349999999999667
 20
2136.308
 30
0.0
 11
86.34999999999998
 21
2161.3910400000009
 31
0.0
  0
LINE
  5
F9
100
AcDbEntity
100
AcDbLine
  8
mainlayer
 62
256
370
-1
  6
BYLAYER
 10
489.14999999999998
 20
1893.27568
 30
0.0
 11
489.14999999999998
 21
1949.6256800000001
 31
0.0
  0
LINE
  5
FA
100
AcDbEntity
100
AcDbLine
  8
mainlayer
 62
256
370
-1
  6
BYLAYER
 10
489.14999999999998
 20
1949.6256800000001
 30
0.0
 11
489.14999999999998
 21
1997.6256800000001
 31
0.0
  0
LINE
  5
FB
100
AcDbEntity
100
AcDbLine
  8
mainlayer
 62
256
370
-1
  6
BYLAYER
 10
489.14999999999998
 20
1997.6256800000001
 30
0.0
 11
489.14999999999998
 21
2161.3910400000009
 31
0.0
  0
LINE
  5
FC
100
AcDbEntity
100
AcDbLine
  8
mainlayer
 62
256
370
-1
  6
BYLAYER
 10
-23.386179187699419
 20
1994.2150186696961
 30
0.0
 11
-15.93521222525519
 21
1997.387500645114
 31
0.0
  0
LINE
  5
FD
100
AcDbEntity
100
AcDbLine
  8
mainlayer
 62
256
370
-1
  6
BYLAYER
 10
-15.93521222525519
 20
1997.387500645114
 30
0.0
 11
-8.0720143247670588
 21
1999.3244232913621
 31
0.0
  0
LINE
  5
FE
100
AcDbEntity
100
AcDbLine
  8
mainlayer
 62
256
370
-1
  6
BYLAYER
 10
-8.0720143247670588
 20
1999.3244232913621
 30
0.0
 11
0.0
 21
1999.97568
 31
0.0
  0
LINE
  5
FF
100
AcDbEntity
100
AcDbLine
  8
mainlayer
 62
256
370
-1
  6
BYLAYER
 10
0.0
 20
1999.97568
 30
0.0
 11
8.072014324767057
 21
1999.3244232913621
 31
0.0
  0
LINE
  5
100
100
AcDbEntity
100
AcDbLine
  8
mainlayer
 62
256
370
-1
  6
BYLAYER
 10
8.072014324767057
 20
1999.3244232913621
 30
0.0
 11
15.93521222525519
 21
1997.387500645114
 31
0.0
  0
LINE
  5
101
100
AcDbEntity
100
AcDbLine
  8
mainlayer
 62
256
370
-1
  6
BYLAYER
 10
15.93521222525519
 20
1997.387500645114
 30
0.0
 11
23.386179187699419
 21
1994.2150186696961
 31
0.0
  0
LINE
  5
102
100
AcDbEntity
100
AcDbLine
  8
mainlayer
 62
256
370
-1
  6
BYLAYER
 10
-25.175000000000001
 20
1997.625680000001
 30
0.0
 11
-19.209275307838539
 21
2000.3088563719259
 31
0.0
  0
LINE
  5
103
100
AcDbEntity
100
AcDbLine
  8
mainlayer
 62
256
370
-1
  6
BYLAYER
 10
-19.209275307838539
 20
2000.3088563719259
 30
0.0
 11
-12.96376404391285
 21
2002.2538231062681
 31
0.0
  0
LINE
  5
104
100
AcDbEntity
100
AcDbLine
  8
mainlayer
 62
256
370
-1
  6
BYLAYER
 10
-12.96376404391285
 20
2002.2538231062681
 30
0.0
 11
-6.5294332102281833
 21
2003.4322514104999
 31
0.0
  0
LINE
  5
105
100
AcDbEntity
100
AcDbLine
  8
mainlayer
 62
256
370
-1
  6
BYLAYER
 10
-6.5294332102281833
 20
2003.4322514104999
 30
0.0
 11
-0.0000000000000118
 21
2003.826977263074
 31
0.0
  0
LINE
  5
106
100
AcDbEntity
100
AcDbLine
  8
mainlayer
 62
256
370
-1
  6
BYLAYER
 10
-0.0000000000000118
 20
2003.826977263074
 30
0.0
 11
6.5294332102281611
 21
2003.4322514104999
 31
0.0
  0
LINE
  5
107
100
AcDbEntity
100
AcDbLine
  8
mainlayer
 62
256
370
-1
  6
BYLAYER
 10
6.5294332102281611
 20
2003.4322514104999
 30
0.0
 11
12.96376404391283
 21
2002.2538231062681
 31
0.0
  0
LINE
  5
108
100
AcDbEntity
100
AcDbLine
  8
mainlayer
 62
256
370
-1
  6
BYLAYER
 10
12.96376404391283
 20
2002.2538231062681
 30
0.0
 11
19.209275307838521
 21
2000.3088563719259
 31
0.0
  0
LINE
  5
109
100
AcDbEntity
100
AcDbLine
  8
mainlayer
 62
256
370
-1
  6
BYLAYER
 10
19.209275307838521
 20
2000.3088563719259
 30
0.0
 11
25.175000000000001
 21
1997.625680000001
 31
0.0
  0
LINE
  5
10A
100
AcDbEntity
100
AcDbLine
  8
mainlayer
 62
256
370
-1
  6
BYLAYER
 10
-25.175000000000001
 20
2005.625680000001
 30
0.0
 11
-18.926133195822619
 21
2006.61975768824
 31
0.0
  0
LINE
  5
10B
100
AcDbEntity
100
AcDbLine
  8
mainlayer
 62
256
370
-1
  6
BYLAYER
 10
-18.926133195822619
 20
2006.61975768824
 30
0.0
 11
-12.63882116431561
 21
2007.3312590621481
 31
0.0
  0
LINE
  5
10C
100
AcDbEntity
100
AcDbLine
  8
mainlayer
 62
256
370
-1
  6
BYLAYER
 10
-12.63882116431561
 20
2007.3312590621481
 30
0.0
 11
-6.325835512750368
 21
2007.758738827443
 31
0.0
  0
LINE
  5
10D
100
AcDbEntity
100
AcDbLine
  8
mainlayer
 62
256
370
-1
  6
BYLAYER
 10
-6.325835512750368
 20
2007.758738827443
 30
0.0
 11
0.0000000000000086
 21
2007.9013286315369
 31
0.0
  0
LINE
  5
10E
100
AcDbEntity
100
AcDbLine
  8
mainlayer
 62
256
370
-1
  6
BYLAYER
 10
0.0000000000000086
 20
2007.9013286315369
 30
0.0
 11
6.3258355127503849
 21
2007.758738827443
 31
0.0
  0
LINE
  5
10F
100
AcDbEntity
100
AcDbLine
  8
mainlayer
 62
256
370
-1
  6
BYLAYER
 10
6.3258355127503849
 20
2007.758738827443
 30
0.0
 11
12.63882116431563
 21
2007.3312590621481
 31
0.0
  0
LINE
  5
110
100
AcDbEntity
100
AcDbLine
  8
mainlayer
 62
256
370
-1
  6
BYLAYER
 10
12.63882116431563
 20
2007.3312590621481
 30
0.0
 11
18.926133195822629
 21
2006.61975768824
 31
0.0
  0
LINE
  5
111
100
AcDbEntity
100
AcDbLine
  8
mainlayer
 62
256
370
-1
  6
BYLAYER
 10
18.926133195822629
 20
2006.61975768824
 30
0.0
 11
25.175000000000001
 21
2005.625680000001
 31
0.0
  0
LINE
  5
112
100
AcDbEntity
100
AcDbLine
  8
mainlayer
 62
256
370
-1
  6
BYLAYER
 10
-48.899105308788641
 20
1961.6256800000001
 30
0.0
 11
-86.349999999999923
 21
1961.6256800000001
 31
0.0
  0
LINE
  5
113
100
AcDbEntity
100
AcDbLine
  8
mainlayer
 62
256
370
-1
  6
BYLAYER
 10
-48.76394672296346
 20
1973.6256800000001
 30
0.0
 11
-86.349999999999852
 21
1973.6256800000001
 31
0.0
  0
LINE
  5
114
100
AcDbEntity
100
AcDbLine
  8
mainlayer
 62
256
370
-1
  6
BYLAYER
 10
-40.717594477080929
 20
1985.6256800000001
 30
0.0
 11
-86.349999999999781
 21
1985.6256800000001
 31
0.0
  0
LINE
  5
115
100
AcDbEntity
100
AcDbLine
  8
mainlayer
 62
256
370
-1
  6
BYLAYER
 10
-37.72089939137124
 20
1982.9761859797611
 30
0.0
 11
-40.717594477080929
 21
1985.6256800000001
 31
0.0
  0
LINE
  5
116
100
AcDbEntity
100
AcDbLine
  8
mainlayer
 62
256
370
-1
  6
BYLAYER
 10
-45.175063799470323
 20
1971.859350653174
 30
0.0
 11
-48.76394672296346
 21
1973.6256800000001
 31
0.0
  0
LINE
  5
117
100
AcDbEntity
100
AcDbLine
  8
mainlayer
 62
256
370
-1
  6
BYLAYER
 10
48.89910530878862
 20
1961.6256800000001
 30
0.0
 11
86.349999999999895
 21
1961.6256800000001
 31
0.0
  0
LINE
  5
118
100
AcDbEntity
100
AcDbLine
  8
mainlayer
 62
256
370
-1
  6
BYLAYER
 10
48.763946722963453
 20
1973.6256800000001
 30
0.0
 11
86.349999999999824
 21
1973.6256800000001
 31
0.0
  0
LINE
  5
119
100
AcDbEntity
100
AcDbLine
  8
mainlayer
 62
256
370
-1
  6
BYLAYER
 10
40.717594477080922
 20
1985.6256800000001
 30
0.0
 11
86.349999999999739
 21
1985.6256800000001
 31
0.0
  0
LINE
  5
11A
100
AcDbEntity
100
AcDbLine
  8
mainlayer
 62
256
370
-1
  6
BYLAYER
 10
-26.466587951183879
 20
1902.1552447563431
 30
0.0
 11
-86.34999999999998
 21
1902.1552447563431
 31
0.0
  0
LINE
  5
11B
100
AcDbEntity
100
AcDbLine
  8
mainlayer
 62
256
370
-1
  6
BYLAYER
 10
-24.51872499249507
 20
1905.6489290429049
 30
0.0
 11
-26.466587951183879
 21
1902.1552447563431
 31
0.0
  0
LINE
  5
11C
100
AcDbEntity
100
AcDbLine
  8
mainlayer
 62
256
370
-1
  6
BYLAYER
 10
26.466587951183861
 20
1902.1552447563431
 30
0.0
 11
86.349999999999966
 21
1902.1552447563431
 31
0.0
  0
LINE
  5
11D
100
AcDbEntity
100
AcDbLine
  8
mainlayer
 62
256
370
-1
  6
BYLAYER
 10
24.518724992495049
 20
1905.6489290429049
 30
0.0
 11
26.466587951183861
 21
1902.1552447563431
 31
0.0
  0
LINE
  5
11E
100
AcDbEntity
100
AcDbLine
  8
mainlayer
 62
256
370
-1
  6
BYLAYER
 10
-50.350000000000001
 20
1949.6256800000001
 30
0.0
 11
-49.98596029035307
 21
1955.6693770350321
 31
0.0
  0
LINE
  5
11F
100
AcDbEntity
100
AcDbLine
  8
mainlayer
 62
256
370
-1
  6
BYLAYER
 10
-49.98596029035307
 20
1955.6693770350321
 30
0.0
 11
-48.899105308788641
 21
1961.6256800000001
 31
0.0
  0
LINE
  5
120
100
AcDbEntity
100
AcDbLine
  8
mainlayer
 62
256
370
-1
  6
BYLAYER
 10
-48.899105308788641
 20
1961.6256800000001
 30
0.0
 11
-47.314578378251767
 21
1966.8434955666819
 31
0.0
  0
LINE
  5
121
100
AcDbEntity
100
AcDbLine
  8
mainlayer
 62
256
370
-1
  6
BYLAYER
 10
-47.314578378251767
 20
1966.8434955666819
 30
0.0
 11
-45.175063799470323
 21
1971.859350653174
 31
0.0
  0
LINE
  5
122
100
AcDbEntity
100
AcDbLine
  8
mainlayer
 62
256
370
-1
  6
BYLAYER
 10
-45.175063799470323
 20
1971.859350653174
 30
0.0
 11
-41.81902898506798
 21
1977.6665664828849
 31
0.0
  0
LINE
  5
123
100
AcDbEntity
100
AcDbLine
  8
mainlayer
 62
256
370
-1
  6
BYLAYER
 10
-41.81902898506798
 20
1977.6665664828849
 30
0.0
 11
-37.72089939137124
 21
1982.9761859797611
 31
0.0
  0
LINE
  5
124
100
AcDbEntity
100
AcDbLine
  8
mainlayer
 62
256
370
-1
  6
BYLAYER
 10
-37.72089939137124
 20
1982.9761859797611
 30
0.0
 11
-33.409796485157408
 21
1987.2940752249151
 31
0.0
  0
LINE
  5
125
100
AcDbEntity
100
AcDbLine
  8
mainlayer
 62
256
370
-1
  6
BYLAYER
 10
-33.409796485157408
 20
1987.2940752249151
 30
0.0
 11
-28.608050924510721
 21
1991.0587817702101
 31
0.0
  0
LINE
  5
126
100
AcDbEntity
100
AcDbLine
  8
mainlayer
 62
256
370
-1
  6
BYLAYER
 10
-28.608050924510721
 20
1991.0587817702101
 30
0.0
 11
-23.386179187699419
 21
1994.2150186696961
 31
0.0
  0
LINE
  5
127
100
AcDbEntity
100
AcDbLine
  8
mainlayer
 62
256
370
-1
  6
BYLAYER
 10
37.72089939137124
 20
1982.9761859797611
 30
0.0
 11
40.717594477080922
 21
1985.6256800000001
 31
0.0
  0
LINE
  5
128
100
AcDbEntity
100
AcDbLine
  8
mainlayer
 62
256
370
-1
  6
BYLAYER
 10
45.175063799470323
 20
1971.859350653174
 30
0.0
 11
48.763946722963453
 21
1973.6256800000001
 31
0.0
  0
LINE
  5
129
100
AcDbEntity
100
AcDbLine
  8
mainlayer
 62
256
370
-1
  6
BYLAYER
 10
50.350000000000001
 20
1949.6256800000001
 30
0.0
 11
49.98596029035307
 21
1955.6693770350321
 31
0.0
  0
LINE
  5
12A
100
AcDbEntity
100
AcDbLine
  8
mainlayer
 62
256
370
-1
  6
BYLAYER
 10
49.98596029035307
 20
1955.6693770350321
 30
0.0
 11
48.89910530878862
 21
1961.6256800000001
 31
0.0
  0
LINE
  5
12B
100
AcDbEntity
100
AcDbLine
  8
mainlayer
 62
256
370
-1
  6
BYLAYER
 10
48.89910530878862
 20
1961.6256800000001
 30
0.0
 11
47.314578378251767
 21
1966.8434955666819
 31
0.0
  0
LINE
  5
12C
100
AcDbEntity
100
AcDbLine
  8
mainlayer
 62
256
370
-1
  6
BYLAYER
 10
47.314578378251767
 20
1966.8434955666819
 30
0.0
 11
45.175063799470323
 21
1971.859350653174
 31
0.0
  0
LINE
  5
12D
100
AcDbEntity
100
AcDbLine
  8
mainlayer
 62
256
370
-1
  6
BYLAYER
 10
45.175063799470323
 20
1971.859350653174
 30
0.0
 11
41.81902898506798
 21
1977.6665664828849
 31
0.0
  0
LINE
  5
12E
100
AcDbEntity
100
AcDbLine
  8
mainlayer
 62
256
370
-1
  6
BYLAYER
 10
41.81902898506798
 20
1977.6665664828849
 30
0.0
 11
37.72089939137124
 21
1982.9761859797611
 31
0.0
  0
LINE
  5
12F
100
AcDbEntity
100
AcDbLine
  8
mainlayer
 62
256
370
-1
  6
BYLAYER
 10
37.72089939137124
 20
1982.9761859797611
 30
0.0
 11
33.409796485157408
 21
1987.2940752249151
 31
0.0
  0
LINE
  5
130
100
AcDbEntity
100
AcDbLine
  8
mainlayer
 62
256
370
-1
  6
BYLAYER
 10
33.409796485157408
 20
1987.2940752249151
 30
0.0
 11
28.608050924510721
 21
1991.0587817702101
 31
0.0
  0
LINE
  5
131
100
AcDbEntity
100
AcDbLine
  8
mainlayer
 62
256
370
-1
  6
BYLAYER
 10
28.608050924510721
 20
1991.0587817702101
 30
0.0
 11
23.386179187699419
 21
1994.2150186696961
 31
0.0
  0
LINE
  5
132
100
AcDbEntity
100
AcDbLine
  8
mainlayer
 62
256
370
-1
  6
BYLAYER
 10
-24.51872499249507
 20
1905.6489290429049
 30
0.0
 11
-16.783333333333349
 21
1902.1552447563431
 31
0.0
  0
LINE
  5
133
100
AcDbEntity
100
AcDbLine
  8
mainlayer
 62
256
370
-1
  6
BYLAYER
 10
-16.783333333333349
 20
1902.1552447563431
 30
0.0
 11
-8.0720143247670588
 21
1899.9269367086381
 31
0.0
  0
LINE
  5
134
100
AcDbEntity
100
AcDbLine
  8
mainlayer
 62
256
370
-1
  6
BYLAYER
 10
-8.0720143247670588
 20
1899.9269367086381
 30
0.0
 11
0.0
 21
1899.27568
 31
0.0
  0
LINE
  5
135
100
AcDbEntity
100
AcDbLine
  8
mainlayer
 62
256
370
-1
  6
BYLAYER
 10
0.0
 20
1899.27568
 30
0.0
 11
8.072014324767057
 21
1899.9269367086381
 31
0.0
  0
LINE
  5
136
100
AcDbEntity
100
AcDbLine
  8
mainlayer
 62
256
370
-1
  6
BYLAYER
 10
8.072014324767057
 20
1899.9269367086381
 30
0.0
 11
16.783333333333321
 21
1902.1552447563431
 31
0.0
  0
LINE
  5
137
100
AcDbEntity
100
AcDbLine
  8
mainlayer
 62
256
370
-1
  6
BYLAYER
 10
16.783333333333321
 20
1902.1552447563431
 30
0.0
 11
24.518724992495049
 21
1905.6489290429049
 31
0.0
  0
LINE
  5
138
100
AcDbEntity
100
AcDbLine
  8
mainlayer
 62
256
370
-1
  6
BYLAYER
 10
-50.350000000000001
 20
1949.6256800000001
 30
0.0
 11
-49.98596029035307
 21
1943.5819829649679
 31
0.0
  0
LINE
  5
139
100
AcDbEntity
100
AcDbLine
  8
mainlayer
 62
256
370
-1
  6
BYLAYER
 10
-49.98596029035307
 20
1943.5819829649679
 30
0.0
 11
-48.899105308788641
 21
1937.6256800000001
 31
0.0
  0
LINE
  5
13A
100
AcDbEntity
100
AcDbLine
  8
mainlayer
 62
256
370
-1
  6
BYLAYER
 10
-48.899105308788641
 20
1937.6256800000001
 30
0.0
 11
-47.314578378251767
 21
1932.4078644333181
 31
0.0
  0
LINE
  5
13B
100
AcDbEntity
100
AcDbLine
  8
mainlayer
 62
256
370
-1
  6
BYLAYER
 10
-47.314578378251767
 20
1932.4078644333181
 30
0.0
 11
-45.175063799470323
 21
1927.3920093468259
 31
0.0
  0
LINE
  5
13C
100
AcDbEntity
100
AcDbLine
  8
mainlayer
 62
256
370
-1
  6
BYLAYER
 10
-45.175063799470323
 20
1927.3920093468259
 30
0.0
 11
-41.81902898506798
 21
1921.584793517115
 31
0.0
  0
LINE
  5
13D
100
AcDbEntity
100
AcDbLine
  8
mainlayer
 62
256
370
-1
  6
BYLAYER
 10
-41.81902898506798
 20
1921.584793517115
 30
0.0
 11
-37.72089939137139
 21
1916.2751740202391
 31
0.0
  0
LINE
  5
13E
100
AcDbEntity
100
AcDbLine
  8
mainlayer
 62
256
370
-1
  6
BYLAYER
 10
-37.72089939137139
 20
1916.2751740202391
 30
0.0
 11
-33.409796485157408
 21
1911.9572847750851
 31
0.0
  0
LINE
  5
13F
100
AcDbEntity
100
AcDbLine
  8
mainlayer
 62
256
370
-1
  6
BYLAYER
 10
-33.409796485157408
 20
1911.9572847750851
 30
0.0
 11
-28.608050924510721
 21
1908.1925782297899
 31
0.0
  0
LINE
  5
140
100
AcDbEntity
100
AcDbLine
  8
mainlayer
 62
256
370
-1
  6
BYLAYER
 10
-28.608050924510721
 20
1908.1925782297899
 30
0.0
 11
-24.51872499249507
 21
1905.6489290429049
 31
0.0
  0
LINE
  5
141
100
AcDbEntity
100
AcDbLine
  8
mainlayer
 62
256
370
-1
  6
BYLAYER
 10
50.350000000000001
 20
1949.6256800000001
 30
0.0
 11
49.98596029035307
 21
1943.5819829649679
 31
0.0
  0
LINE
  5
142
100
AcDbEntity
100
AcDbLine
  8
mainlayer
 62
256
370
-1
  6
BYLAYER
 10
49.98596029035307
 20
1943.5819829649679
 30
0.0
 11
48.899105308788641
 21
1937.6256800000001
 31
0.0
  0
LINE
  5
143
100
AcDbEntity
100
AcDbLine
  8
mainlayer
 62
256
370
-1
  6
BYLAYER
 10
48.899105308788641
 20
1937.6256800000001
 30
0.0
 11
47.314578378251767
 21
1932.4078644333181
 31
0.0
  0
LINE
  5
144
100
AcDbEntity
100
AcDbLine
  8
mainlayer
 62
256
370
-1
  6
BYLAYER
 10
47.314578378251767
 20
1932.4078644333181
 30
0.0
 11
45.175063799470323
 21
1927.3920093468259
 31
0.0
  0
LINE
  5
145
100
AcDbEntity
100
AcDbLine
  8
mainlayer
 62
256
370
-1
  6
BYLAYER
 10
45.175063799470323
 20
1927.3920093468259
 30
0.0
 11
41.81902898506798
 21
1921.584793517115
 31
0.0
  0
LINE
  5
146
100
AcDbEntity
100
AcDbLine
  8
mainlayer
 62
256
370
-1
  6
BYLAYER
 10
41.81902898506798
 20
1921.584793517115
 30
0.0
 11
37.72089939137139
 21
1916.2751740202391
 31
0.0
  0
LINE
  5
147
100
AcDbEntity
100
AcDbLine
  8
mainlayer
 62
256
370
-1
  6
BYLAYER
 10
37.72089939137139
 20
1916.2751740202391
 30
0.0
 11
33.409796485157408
 21
1911.9572847750851
 31
0.0
  0
LINE
  5
148
100
AcDbEntity
100
AcDbLine
  8
mainlayer
 62
256
370
-1
  6
BYLAYER
 10
33.409796485157408
 20
1911.9572847750851
 30
0.0
 11
28.608050924510721
 21
1908.1925782297899
 31
0.0
  0
LINE
  5
149
100
AcDbEntity
100
AcDbLine
  8
mainlayer
 62
256
370
-1
  6
BYLAYER
 10
28.608050924510721
 20
1908.1925782297899
 30
0.0
 11
24.518724992495049
 21
1905.6489290429049
 31
0.0
  0
LINE
  5
14A
100
AcDbEntity
100
AcDbLine
  8
mainlayer
 62
256
370
-1
  6
BYLAYER
 10
-86.349999999999994
 20
1997.6256800000001
 30
0.0
 11
-86.349999999999781
 21
1985.6256800000001
 31
0.0
  0
LINE
  5
14B
100
AcDbEntity
100
AcDbLine
  8
mainlayer
 62
256
370
-1
  6
BYLAYER
 10
-86.349999999999781
 20
1985.6256800000001
 30
0.0
 11
-86.349999999999852
 21
1973.6256800000001
 31
0.0
  0
LINE
  5
14C
100
AcDbEntity
100
AcDbLine
  8
mainlayer
 62
256
370
-1
  6
BYLAYER
 10
-86.349999999999852
 20
1973.6256800000001
 30
0.0
 11
-86.349999999999923
 21
1961.6256800000001
 31
0.0
  0
LINE
  5
14D
100
AcDbEntity
100
AcDbLine
  8
mainlayer
 62
256
370
-1
  6
BYLAYER
 10
-86.349999999999923
 20
1961.6256800000001
 30
0.0
 11
-86.349999999999994
 21
1949.6256800000001
 31
0.0
  0
LINE
  5
14E
100
AcDbEntity
100
AcDbLine
  8
mainlayer
 62
256
370
-1
  6
BYLAYER
 10
-86.349999999999994
 20
1949.6256800000001
 30
0.0
 11
-86.34999999999998
 21
1902.1552447563431
 31
0.0
  0
LINE
  5
14F
100
AcDbEntity
100
AcDbLine
  8
mainlayer
 62
256
370
-1
  6
BYLAYER
 10
-86.34999999999998
 20
1902.1552447563431
 30
0.0
 11
-86.34999999999998
 21
1893.27568
 31
0.0
  0
LINE
  5
150
100
AcDbEntity
100
AcDbLine
  8
mainlayer
 62
256
370
-1
  6
BYLAYER
 10
86.349999999999994
 20
1997.6256800000001
 30
0.0
 11
86.349999999999739
 21
1985.6256800000001
 31
0.0
  0
LINE
  5
151
100
AcDbEntity
100
AcDbLine
  8
mainlayer
 62
256
370
-1
  6
BYLAYER
 10
86.349999999999739
 20
1985.6256800000001
 30
0.0
 11
86.349999999999824
 21
1973.6256800000001
 31
0.0
  0
LINE
  5
152
100
AcDbEntity
100
AcDbLine
  8
mainlayer
 62
256
370
-1
  6
BYLAYER
 10
86.349999999999824
 20
1973.6256800000001
 30
0.0
 11
86.349999999999895
 21
1961.6256800000001
 31
0.0
  0
LINE
  5
153
100
AcDbEntity
100
AcDbLine
  8
mainlayer
 62
256
370
-1
  6
BYLAYER
 10
86.349999999999895
 20
1961.6256800000001
 30
0.0
 11
86.349999999999994
 21
1949.6256800000001
 31
0.0
  0
LINE
  5
154
100
AcDbEntity
100
AcDbLine
  8
mainlayer
 62
256
370
-1
  6
BYLAYER
 10
86.349999999999994
 20
1949.6256800000001
 30
0.0
 11
86.349999999999966
 21
1902.1552447563431
 31
0.0
  0
LINE
  5
155
100
AcDbEntity
100
AcDbLine
  8
mainlayer
 62
256
370
-1
  6
BYLAYER
 10
86.349999999999966
 20
1902.1552447563431
 30
0.0
 11
86.349999999999994
 21
1893.27568
 31
0.0
  0
LINE
  5
156
100
AcDbEntity
100
AcDbLine
  8
mainlayer
 62
256
370
-1
  6
BYLAYER
 10
16.783333333333321
 20
1893.27568
 30
0.0
 11
86.349999999999994
 21
1893.27568
 31
0.0
  0
LINE
  5
157
100
AcDbEntity
100
AcDbLine
  8
mainlayer
 62
256
370
-1
  6
BYLAYER
 10
-16.783333333333339
 20
1893.27568
 30
0.0
 11
16.783333333333321
 21
1893.27568
 31
0.0
  0
ENDSEC
  0
SECTION
  2
OBJECTS
  0
DICTIONARY
  5
C
100
AcDbDictionary
280
0
281
1
  3
ACAD_GROUP
350
D
  3
ACAD_LAYOUT
350
1A
  3
ACAD_MLINESTYLE
350
17
  3
ACAD_PLOTSETTINGS
350
19
  3
ACAD_PLOTSTYLENAME
350
E
  3
AcDbVariableDictionary
350
158
  0
DICTIONARY
  5
D
100
AcDbDictionary
280
0
281
1
  0
ACDBDICTIONARYWDFLT
  5
E
100
AcDbDictionary
281
1
  3
Normal
350
F
100
AcDbDictionaryWithDefault
340
F
  0
ACDBPLACEHOLDER
  5
F
  0
DICTIONARY
  5
17
100
AcDbDictionary
280
0
281
1
  3
Standard
350
18
  0
MLINESTYLE
  5
18
100
AcDbMlineStyle
  2
STANDARD
 70
0
  3

 62
256
 51
90.0
 52
90.0
 71
2
 49
0.5
 62
256
  6
BYLAYER
 49
-0.5
 62
256
  6
BYLAYER
  0
DICTIONARY
  5
19
100
AcDbDictionary
280
0
281
1
  0
DICTIONARY
  5
1A
100
AcDbDictionary
281
1
  3
Layout1
350
1E
  3
Layout2
350
26
  3
Model
350
22
  0
LAYOUT
  5
1E
100
AcDbPlotSettings
  1

  2
C:\Program Files\AutoCAD 2002\plotters\DWF ePlot (optimized for plotting).pc3
  4

  6

 40
0.0
 41
0.0
 42
0.0
 43
0.0
 44
0.0
 45
0.0
 46
0.0
 47
0.0
 48
0.0
 49
0.0
140
0.0
141
0.0
142
1.0
143
1.0
 70
688
 72
0
 73
0
 74
5
  7

 75
16
147
1.0
148
0.0
149
0.0
100
AcDbLayout
  1
Layout1
 70
1
 71
1
 10
0.0
 20
0.0
 11
420.0
 21
297.0
 12
0.0
 22
0.0
 32
0.0
 14
100000000000000000000.0
 24
100000000000000000000.0
 34
100000000000000000000.0
 15
-100000000000000000000.0
 25
-100000000000000000000.0
 35
-100000000000000000000.0
146
0.0
 13
0.0
 23
0.0
 33
0.0
 16
1.0
 26
0.0
 36
0.0
 17
0.0
 27
1.0
 37
0.0
 76
0
330
1B
  0
LAYOUT
  5
22
100
AcDbPlotSettings
  1

  2
C:\Program Files\AutoCAD 2002\plotters\DWF ePlot (optimized for plotting).pc3
  4

  6

 40
0.0
 41
0.0
 42
0.0
 43
0.0
 44
0.0
 45
0.0
 46
0.0
 47
0.0
 48
0.0
 49
0.0
140
0.0
141
0.0
142
1.0
143
1.0
 70
1712
 72
0
 73
0
 74
0
  7

 75
0
147
1.0
148
0.0
149
0.0
100
AcDbLayout
  1
Model
 70
1
 71
0
 10
0.0
 20
0.0
 11
12.0
 21
9.0
 12
0.0
 22
0.0
 32
0.0
 14
0.0
 24
0.0
 34
0.0
 15
0.0
 25
0.0
 35
0.0
146
0.0
 13
0.0
 23
0.0
 33
0.0
 16
1.0
 26
0.0
 36
0.0
 17
0.0
 27
1.0
 37
0.0
 76
0
330
1F
  0
LAYOUT
  5
26
100
AcDbPlotSettings
  1

  2
C:\Program Files\AutoCAD 2002\plotters\DWF ePlot (optimized for plotting).pc3
  4

  6

 40
0.0
 41
0.0
 42
0.0
 43
0.0
 44
0.0
 45
0.0
 46
0.0
 47
0.0
 48
0.0
 49
0.0
140
0.0
141
0.0
142
1.0
143
1.0
 70
688
 72
0
 73
0
 74
5
  7

 75
16
147
1.0
148
0.0
149
0.0
100
AcDbLayout
  1
Layout2
 70
1
 71
2
 10
0.0
 20
0.0
 11
12.0
 21
9.0
 12
0.0
 22
0.0
 32
0.0
 14
0.0
 24
0.0
 34
0.0
 15
0.0
 25
0.0
 35
0.0
146
0.0
 13
0.0
 23
0.0
 33
0.0
 16
1.0
 26
0.0
 36
0.0
 17
0.0
 27
1.0
 37
0.0
 76
0
330
23
  0
DICTIONARY
  5
158
100
AcDbDictionary
281
1
  3
DIMASSOC
350
15A
  3
HIDETEXT
350
159
  0
DICTIONARYVAR
  5
159
100
DictionaryVariables
280
0
  1
2
  0
DICTIONARYVAR
  5
15A
100
DictionaryVariables
280
0
  1
1
  0
ENDSEC
  0
EOF
